<svg width="105" height="243" viewBox="0 0 105 243" fill="none" xmlns="http://www.w3.org/2000/svg">
<path fill-rule="evenodd" clip-rule="evenodd" d="M53.0861 0.610108C52.9741 2.69511 48.7521 13.6791 47.6321 14.8001C47.2781 15.1541 46.9881 14.6781 46.9881 13.7411C46.9881 11.5671 44.3041 7.44511 42.4161 6.72111C41.2891 6.28811 41.1081 6.73911 41.6061 8.72611C41.9601 10.1351 41.6881 13.1601 41.0011 15.4491C40.3141 17.7381 39.5521 20.2821 39.3081 21.1031C38.5371 23.6961 35.0361 18.0071 35.0041 14.1101L34.9751 10.6101L32.9881 13.6101C31.6191 15.6781 30.9991 18.3041 30.9951 22.0601C30.9861 28.8331 29.0481 27.7171 28.1941 20.4471C27.7171 16.3831 27.5111 16.0101 26.9071 18.1101C26.5111 19.4851 26.1431 23.6921 26.0881 27.4591L25.9881 34.3081L22.4311 32.2091C17.9351 29.5561 16.1391 29.5141 18.4941 32.1161C20.6931 34.5471 19.8941 35.8731 17.6071 33.5861C16.1151 32.0941 15.9881 32.4261 15.9881 37.8161C15.9881 41.6041 16.5621 44.4851 17.6181 45.9921C19.2001 48.2511 19.1851 48.2861 17.1181 47.1801C13.6311 45.3131 14.6781 47.3811 19.7381 52.3511C24.5671 57.0961 30.0851 60.0721 34.2061 60.1571C35.7841 60.1891 35.0721 60.7581 31.8961 62.0001C22.8231 65.5501 14.2601 72.9901 6.53413 84.0351C0.967127 91.9951 -0.0128733 95.0391 0.000126653 104.328C0.0121267 113.063 0.796128 116.56 6.30413 132.47L9.71813 142.33L10.1801 134.359C10.5031 128.766 11.3041 125.116 12.8631 122.125C14.7731 118.46 14.9931 116.931 14.4291 111.211C13.1721 98.4501 17.7811 93.4691 30.0351 94.3451C35.4231 94.7311 38.2491 95.6421 44.6661 99.0611L52.6201 103.299L57.4491 100.237C67.9451 93.5811 81.1541 92.0991 86.3641 96.9941C89.8671 100.285 91.4371 106.727 90.0201 111.993C88.8441 116.357 89.3061 119.524 91.4941 122.11C92.9831 123.87 94.9571 132.62 95.0591 137.909C95.1271 141.419 95.2271 141.3 96.9981 135.61C98.0251 132.31 100.071 126.235 101.544 122.11C105.213 111.839 105.907 100.426 103.278 93.6101C100.893 87.4271 90.6651 73.7381 85.1341 69.3241C80.6051 65.7101 69.4631 60.1121 66.7971 60.1111C65.8671 60.1101 64.8661 59.7211 64.5721 59.2471C64.2791 58.7721 66.6661 58.1451 69.8771 57.8541C78.3611 57.0851 84.3201 54.1281 87.4821 49.1201C91.1131 43.3681 91.5831 41.9451 89.5991 42.7061C87.5341 43.4981 87.5351 41.7301 89.6031 38.5751C91.8871 35.0881 89.6071 35.5031 86.8101 39.0831L84.4881 42.0551L84.8331 35.9591C85.0231 32.6061 84.8391 27.7811 84.4251 25.2371L83.6721 20.6101L82.7881 24.7721C82.3031 27.0611 81.3271 29.4141 80.6211 30.0001C79.5921 30.8531 79.2901 29.1331 79.1041 21.3631C78.9771 16.0271 78.7151 11.5041 78.5231 11.3121C77.7301 10.5181 72.0481 14.2521 70.1231 16.8321L68.0511 19.6101L68.0261 16.1101C68.0121 14.1851 68.6751 11.3161 69.5001 9.73411C70.9961 6.86611 70.9941 6.86211 68.7441 8.33611C67.5031 9.15011 65.5541 11.1811 64.4131 12.8511C62.8771 15.0971 62.0971 15.5641 61.4131 14.6461C57.0121 8.73611 54.6221 4.63611 53.9671 1.87411C53.5181 -0.0178925 53.1481 -0.548892 53.0861 0.610108ZM51.4851 24.1161C50.0351 26.9781 48.4791 31.1851 48.0271 33.4651L47.2071 37.6101L47.1071 33.1101C47.0331 29.7921 47.8121 27.2061 50.0711 23.2671C53.9381 16.5231 55.0071 17.1651 51.4851 24.1161ZM41.0981 34.1461C40.1721 36.4671 40.1111 36.4851 40.0511 34.4421C40.0171 33.2491 39.7211 31.4491 39.3941 30.4421C38.8991 28.9181 38.9811 28.8621 39.8781 30.1101C40.7281 31.2911 40.9981 30.7591 41.1471 27.6101L41.3371 23.6101L41.7101 27.6461C41.9151 29.8651 41.6391 32.7901 41.0981 34.1461ZM53.5391 36.7291C54.6991 36.2841 54.7421 36.5321 53.7731 38.0821C51.9741 40.9641 50.9691 39.5131 51.1561 34.3011C51.3171 29.8231 51.3421 29.7841 51.7211 33.4421C52.0121 36.2471 52.4991 37.1281 53.5391 36.7291ZM32.8001 34.7261C32.8751 36.7151 33.2851 38.8741 33.7121 39.5231C34.1391 40.1731 33.6341 39.7831 32.5901 38.6571C30.7081 36.6281 30.6971 36.6501 31.2921 41.1551C31.6231 43.6551 32.1711 46.5801 32.5101 47.6551C32.9191 48.9541 32.6111 48.7711 31.5931 47.1101C29.8411 44.2561 29.5231 37.4621 30.9631 33.6751C32.2731 30.2301 32.6391 30.4391 32.8001 34.7261ZM61.1881 35.8601C60.7191 38.3291 60.8351 38.4701 62.3271 37.2381C64.8401 35.1611 64.3161 36.4531 61.6161 38.9891L59.2451 41.2171L59.6981 38.4141C60.2651 34.9001 60.8121 33.1101 61.3181 33.1101C61.5341 33.1101 61.4761 34.3471 61.1881 35.8601ZM29.9461 81.4751C31.6601 83.9611 31.3711 83.7991 28.5481 80.6931C25.1111 76.9131 24.1761 74.2561 25.7321 72.6991C26.1421 72.2901 26.7701 73.3921 27.1301 75.1481C27.4891 76.9041 28.7561 79.7511 29.9461 81.4751ZM68.2871 82.8601C67.7321 84.3831 67.9491 84.3511 69.9641 82.6101L72.2791 80.6101L71.2261 82.6211C70.6471 83.7271 69.2121 85.5021 68.0381 86.5651C65.9261 88.4761 65.9101 88.4761 66.6341 86.5541C67.1511 85.1791 65.9361 85.7741 62.4831 88.5861C59.3841 91.1091 57.8541 91.9011 58.2941 90.7541C58.6761 89.7601 58.9951 88.1961 59.0031 87.2781C59.0141 86.1391 59.2591 85.9871 59.7761 86.8011C60.3061 87.6351 61.7261 86.9711 64.5101 84.5881C69.1941 80.5811 69.1031 80.6221 68.2871 82.8601ZM40.6841 86.4351C40.1311 83.8741 42.4521 84.2701 43.4641 86.9091C43.9391 88.1451 44.2881 88.2431 44.8681 87.3041C45.4131 86.4231 45.9821 86.8011 46.7931 88.5821C47.8841 90.9761 46.8041 92.2401 45.4881 90.1101C44.5101 88.5281 42.9881 88.9471 43.6311 90.6211C44.6071 93.1641 41.3461 91.2731 38.7201 87.7731C34.9331 82.7271 34.5411 81.3021 37.9871 85.1101C40.5901 87.9871 41.0701 88.2231 40.6841 86.4351ZM35.6381 159.533C33.9051 161.416 31.2061 164.566 29.6401 166.533C28.0731 168.5 26.0481 170.139 25.1401 170.173C24.0431 170.215 24.2811 170.554 25.8491 171.182C29.0231 172.453 34.5081 170.832 39.2501 167.222C42.4361 164.797 43.6821 164.434 47.3951 164.852C51.1231 165.273 51.8721 165.051 52.4041 163.373C52.7491 162.288 52.6001 160.322 52.0731 159.005C51.5461 157.688 51.0861 157.06 51.0511 157.61C51.0171 158.16 48.8511 158.566 46.2381 158.513C43.6261 158.459 40.4361 159.058 39.1511 159.843C35.8031 161.888 35.3871 160.728 38.5701 158.224C40.0481 157.061 40.7021 156.11 40.0231 156.11C39.3441 156.11 37.3711 157.65 35.6381 159.533ZM54.9781 157.622C54.3541 158.374 53.9891 160.254 54.1661 161.8C54.4711 164.459 54.7591 164.613 59.5501 164.662C63.6671 164.704 65.3461 165.296 68.5501 167.839C72.3141 170.826 75.5111 171.685 80.9881 171.182L83.4881 170.952L80.8401 169.982C79.3831 169.448 76.9831 167.267 75.5051 165.135C72.7761 161.196 69.9881 159.257 69.9881 161.296C69.9881 161.963 69.2751 161.786 68.2381 160.862C67.2751 160.006 64.1541 158.619 61.3001 157.78C56.9241 156.493 55.9351 156.469 54.9781 157.622ZM17.0981 169.783C16.9601 172.507 12.3411 178.11 10.2321 178.11C9.36513 178.11 8.93213 178.387 9.27013 178.726C9.60913 179.064 11.3041 178.847 13.0371 178.243C15.8601 177.258 16.1141 177.325 15.4671 178.877C14.1271 182.097 13.7491 189.861 14.8421 191.742C15.8761 193.523 15.9291 193.514 15.9581 191.551C15.9741 190.419 16.6491 188.619 17.4561 187.551C18.8241 185.742 18.9271 185.891 18.9561 189.738C18.9921 194.37 21.1881 200.319 24.2551 204.093C25.3801 205.477 26.0481 205.935 25.7401 205.11C25.4321 204.285 24.8751 202.71 24.5021 201.61C23.8341 199.638 23.8471 199.637 25.4061 201.551C26.2761 202.619 26.9881 203.842 26.9881 204.27C26.9881 204.698 29.2441 208.504 32.0011 212.727C34.7581 216.951 37.6291 222.477 38.3821 225.008L39.7501 229.61L40.6191 226.538L41.4881 223.466L46.9651 229.423C51.5811 234.442 52.4431 235.973 52.4431 239.151V242.923L55.3651 240.841C56.9731 239.697 59.6831 236.511 61.3881 233.761L64.4881 228.762L65.1061 232.186C65.4461 234.069 65.7841 234.928 65.8561 234.095C65.9291 233.262 67.3931 229.701 69.1101 226.182L72.2311 219.783L73.5611 222.947C75.1491 226.722 75.8891 227.04 75.2441 223.67C74.9881 222.329 75.8131 218.562 77.0781 215.3C79.3171 209.524 79.4211 209.423 81.0351 211.417C82.6561 213.418 82.6841 213.395 82.2471 210.421C81.9661 208.505 82.8001 205.013 84.4991 200.994C85.9831 197.483 87.4261 193.372 87.7061 191.86C88.2851 188.732 88.7171 188.591 91.4291 190.642C92.4971 191.449 94.0591 192.11 94.9021 192.11C96.0051 192.11 95.8341 191.69 94.2901 190.609C91.8841 188.924 91.4001 187.046 90.4261 175.61L89.7441 167.61L88.4441 172.61C86.5701 179.814 85.5531 182.109 82.2041 186.691C77.6591 192.908 73.8951 194.268 63.4571 193.466L54.7771 192.799L55.3551 189.237C55.6731 187.279 56.8811 184.393 58.0411 182.824C61.1591 178.606 60.1141 177.443 53.1481 177.378C46.1801 177.312 44.5741 178.976 48.0421 182.667C49.2021 183.903 50.3911 186.695 50.6831 188.873L51.2141 192.832L43.1401 193.536C36.5171 194.114 34.4091 193.929 31.4111 192.506C25.5641 189.732 19.8261 180.818 18.0191 171.703C17.5721 169.452 17.1581 168.588 17.0981 169.783Z" fill="black"/>
</svg>
